<svg id="_x33_0" enable-background="new 0 0 64 64" height="512" viewBox="0 0 64 64" width="512" xmlns="http://www.w3.org/2000/svg"><g><g><g><path d="m49.09 29c-.7 0-1.37.28-1.86.77l-.23.23-.49-2.44c-.33-1.67-1.15-3.2-2.35-4.4l-.05-.05c-1.37-1.37-3.14-2.26-5.04-2.53-1.73-.25-3.57-.51-3.57-.51-.73.59-1.67.93-2.67.93h-.26c-1.06 0-2.08-.17-3.03-.49-3.8-1.27-6.53-4.85-6.52-9.07 0-2.19.75-4.24 2.02-5.87 1.28-1.63 3.08-2.85 5.2-3.38l.76-.19c.59 2.34 2.69 3.99 5.1 3.99h.02 2.84 3.62c10.73 0 19.42 8.69 19.42 19.42 0 2.73-.58 5.41-1.66 7.86s-2.68 4.67-4.7 6.51l-4.64 4.22-3-6 2.19-1.64c1.14-.86 1.81-2.2 1.81-3.62 0-.49-.08-.98-.23-1.44l-.17-.49c-.36-1.08-1.37-1.81-2.51-1.81z" fill="#656d78"/></g><g><path d="m54.13 53.71 4.36 2.37c1.08.6 1.96 1.46 2.57 2.48.6 1.02.94 2.2.94 3.44-1.23-2.45-3.73-4-6.47-4h-1.06c-2.74 0-5.24 1.55-6.47 4h-21c0-1.84 1.04-3.52 2.68-4.34l7.11-3.55c.49-.25.91-.59 1.25-.99.64 1.73 2.28 2.88 4.12 2.88 2.52 0 4.99-.66 7.17-1.9l3.1-1.77.01-.01c.46.56 1.03 1.03 1.69 1.39z" fill="#b4dd7f"/></g><g><path d="m62 62h-14c1.23-2.45 3.73-4 6.47-4h1.06c2.74 0 5.24 1.55 6.47 4z" fill="#a0d468"/></g><g><path d="m51 48.44c0 1.44.52 2.81 1.44 3.88l-.01.01-3.1 1.77c-2.18 1.24-4.65 1.9-7.17 1.9-1.84 0-3.48-1.15-4.12-2.88.61-.71.96-1.63.96-2.59v-3.39l-1.29.37c-1.13.33-2.31.49-3.49.49-1.16 0-2.22-.47-2.98-1.24-.77-.76-1.24-1.82-1.24-2.98 0-.46.31-.86.76-.97l.97-.24c1.33-.34 2.27-1.54 2.27-2.91v-.66h-4c-.55 0-1-.45-1-1v-2c-1.28 0-2.51-.51-3.41-1.41l-.59-.59 2-3.34c.66-1.09 1-2.33 1-3.6v-2.23c0-1.58.55-3.11 1.54-4.32.95.32 1.97.49 3.03.49h.26c1 0 1.94-.34 2.67-.93 0 0 1.84.26 3.57.51 1.9.27 3.67 1.16 5.04 2.53l.05.05c1.2 1.2 2.02 2.73 2.35 4.4l.49 2.44.23-.23c.49-.49 1.16-.77 1.86-.77 1.14 0 2.15.73 2.51 1.81l.17.49c.15.46.23.95.23 1.44 0 1.42-.67 2.76-1.81 3.62l-2.19 1.64 3 6z" fill="#f0d0b4"/></g></g><g><path d="m37.436 28.664c-.44.22-.932.336-1.423.336-1.371 0-2.583-.874-3.017-2.173l-.047-.142-1.898.629.048.144c.706 2.119 2.681 3.542 4.914 3.542.801 0 1.602-.189 2.317-.547l1.117-.559-.895-1.789z"/><path d="m58.967 55.207-4.361-2.379c-1.608-.877-2.606-2.559-2.606-4.39v-3.996l4.316-3.924c4.247-3.861 6.684-9.368 6.684-15.108 0-11.26-9.16-20.42-20.419-20.42l-6.459.003c-.003 0-.005 0-.007 0-1.964 0-3.668-1.33-4.146-3.236l-.242-.971-1.729.435c-4.69 1.177-7.973 5.376-7.981 10.213-.005 2.821 1.091 5.474 3.084 7.47.862.864 1.853 1.548 2.921 2.059-.664 1.172-1.022 2.507-1.022 3.866v2.232c0 1.087-.296 2.155-.854 3.087l-2.404 4.007 1.138 1.138c.847.847 1.948 1.412 3.121 1.619v1.088c0 1.103.897 2 2 2h2.971c-.133.77-.706 1.403-1.486 1.598l-.969.243c-.894.222-1.517 1.02-1.517 1.94 0 2.878 2.341 5.219 5.219 5.219 1.275 0 2.543-.178 3.768-.528l.013-.004v2.06c0 1.144-.636 2.172-1.658 2.683l-7.105 3.553c-1.997.998-3.237 3.005-3.237 5.236v1h37v-1c0-2.834-1.545-5.437-4.033-6.793zm1.141 5.793h-10.216c1.16-1.261 2.803-2 4.58-2h1.057c1.776 0 3.419.739 4.579 2zm-36.09-49.563c.007-3.873 2.604-7.242 6.333-8.242.975 2.279 3.222 3.798 5.765 3.798h.009l6.457-.003c10.155 0 18.418 8.263 18.418 18.42 0 5.178-2.197 10.146-6.029 13.629l-3.667 3.333-2.036-4.073 1.521-1.141c1.384-1.038 2.211-2.692 2.211-4.423 0-.597-.096-1.185-.283-1.748l-.166-.497c-.497-1.489-1.886-2.49-3.456-2.49-.495 0-.975.098-1.418.285l-.185-.923c-.374-1.869-1.283-3.567-2.679-4.963-1.532-1.532-3.471-2.503-5.605-2.808l-1.813-.259c.311-.561.519-1.182.582-1.844.135-1.407-.331-2.811-1.276-3.851-.946-1.04-2.296-1.637-3.701-1.637v2c.844 0 1.653.358 2.221.983.575.633.848 1.455.766 2.315-.146 1.515-1.533 2.702-3.159 2.702h-.262c-2.286 0-4.435-.891-6.05-2.509s-2.502-3.768-2.498-6.054zm19.256 35.524-.549-1.923-5.288 1.511c-1.046.299-2.128.451-3.218.451-1.774 0-3.219-1.444-3.218-3.219l.969-.243c1.784-.445 3.03-2.041 3.03-3.88v-1.658h-5v-3h-1c-1.008 0-1.994-.409-2.707-1.121l-.034-.034 1.602-2.668c.746-1.243 1.14-2.666 1.14-4.116v-2.232c0-1.128.348-2.224.958-3.165.843.214 1.715.336 2.607.336h.262c1.068 0 2.064-.334 2.899-.886l3.198.457c1.704.243 3.251 1.019 4.524 2.292 1.065 1.065 1.785 2.411 2.082 3.891l.854 4.274 1.547-1.547c.311-.31.724-.481 1.163-.481.708 0 1.335.452 1.559 1.123l.166.497c.119.359.18.734.18 1.115 0 1.105-.527 2.161-1.411 2.824l-2.856 2.142 3.267 6.535v4.202c0 1.279.348 2.506.976 3.567l-2.14 1.223c-2.029 1.159-4.337 1.772-6.674 1.772-1.242 0-2.378-.688-2.967-1.754.514-.793.805-1.728.805-2.718v-2.631zm-13.143 11.592 7.105-3.553c.183-.092.355-.198.523-.309.993 1.414 2.625 2.309 4.403 2.309 2.685 0 5.335-.704 7.666-2.036l2.43-1.389c.417.385.878.729 1.39 1.008l4.361 2.379c.476.26.898.586 1.273.956-1.138-.583-2.412-.918-3.754-.918h-1.057c-2.923 0-5.555 1.525-7.04 4h-19.301c.279-1.051.994-1.944 2.001-2.447z"/><path d="m3 33c0-2.757 2.243-5 5-5 1.654 0 3 1.346 3 3s-1.346 3-3 3h-1v2h1c2.757 0 5-2.243 5-5s-2.243-5-5-5c-3.859 0-7 3.14-7 7s3.141 7 7 7h16v-2h-16c-2.757 0-5-2.243-5-5z"/><path d="m7 47c0 2.757 2.243 5 5 5 1.654 0 3-1.346 3-3s-1.346-3-3-3h-1v2h1c.552 0 1 .449 1 1s-.448 1-1 1c-1.654 0-3-1.346-3-3s1.346-3 3-3h12v-2h-12c-2.757 0-5 2.243-5 5z"/></g></g></svg>