<svg id="Capa_1" enable-background="new 0 0 497.001 497.001" height="512" viewBox="0 0 497.001 497.001" width="512" xmlns="http://www.w3.org/2000/svg"><g><path d="m467.001 150.5h-30l29.999 151.5c0 8.28 6.71 14.5 15 14.5 8.28 0 15-6.22 15-14.5l.001-121.5c0-16.5-13.5-30-30-30z" fill="#4ad6cf"/><path d="m306.638 228.197-22.5-22.5c-2.929-2.929-7.678-2.929-10.607 0s-2.929 7.677 0 10.607l9.697 9.697h-69.454l9.696-9.697c2.929-2.929 2.928-7.678 0-10.607-2.929-2.929-7.678-2.929-10.607 0l-22.499 22.5c-2.929 2.929-2.928 7.678 0 10.607l22.5 22.5c2.929 2.929 7.678 2.929 10.607 0s2.929-7.677 0-10.607l-9.697-9.697h69.454l-9.697 9.697c-2.929 2.929-2.929 7.677 0 10.607 2.929 2.929 7.678 2.929 10.606 0l22.5-22.5c2.93-2.929 2.93-7.677.001-10.607z" fill="#ff4547"/><path d="m361.334 150.5h30l-30.001 151c0 8.28-6.72 15-15 15s-15-6.72-15-15l.001-121c0-16.5 13.5-30 30-30z" fill="#9bfef7"/><path d="m467.001 180.5c0-16.5-13.5-30-30-30h-45.667c-16.5 0-30 13.5-30 30v267.083c0 10.447 8.469 18.916 18.917 18.916 10.447 0 18.917-8.469 18.917-18.916v-146.083h30v146.083c0 10.447 8.469 18.916 18.917 18.916 10.447 0 18.916-8.469 18.916-18.916z" fill="#4ef5e9"/><path d="m413.838 30.5v90c24.853 0 45-20.147 45-45s-20.147-45-45-45z" fill="#4ad6cf"/><path d="m428.838 75.5c0-24.853-6.716-45-15-45-24.853 0-45 20.147-45 45s20.147 45 45 45c8.285 0 15-20.147 15-45z" fill="#4ef5e9"/><path d="m135.667 150.5h-30l30 151.5c0 8.28 6.71 14.5 15 14.5 8.28 0 15-6.22 15-14.5l.001-121.5c-.001-16.5-13.501-30-30.001-30z" fill="#c782ff"/><path d="m30.001 150.5h30l-30.001 151c0 8.28-6.72 15-15 15s-15-6.72-15-15l.001-121c0-16.5 13.5-30 30-30z" fill="#ccc9fa"/><path d="m135.667 180.5c0-16.5-13.5-30-30-30h-45.666c-16.5 0-30 13.5-30 30v267.083c0 10.447 8.469 18.916 18.917 18.916 10.447 0 18.917-8.469 18.917-18.916v-146.083h30v146.083c0 10.447 8.469 18.916 18.917 18.916 10.447 0 18.916-8.469 18.916-18.916z" fill="#caa6fd"/><path d="m82.505 30.5v90c24.853 0 45-20.147 45-45s-20.147-45-45-45z" fill="#c782ff"/><path d="m97.505 75.5c0-24.853-6.716-45-15-45-24.853 0-45 20.147-45 45s20.147 45 45 45c8.284 0 15-20.147 15-45z" fill="#caa6fd"/></g></svg>