<svg enable-background="new 0 0 58 58.002" height="512" viewBox="0 0 58 58.002" width="512" xmlns="http://www.w3.org/2000/svg"><path d="m41.62 3.619-17.994 17.994c-3.885 3.885-7.234 8.27-9.96 13.04l-7.236 12.665 4.254 4.254 12.664-7.237c4.77-2.726 9.155-6.075 13.04-9.96l17.993-17.995z" fill="#e7eced"/><path d="m53.22 17.541-12.761-12.761 2.143-2.143c3.515-3.515 9.213-3.515 12.728 0l.033.033c3.515 3.515 3.515 9.213 0 12.728z" fill="#25ae88"/><path d="m53.22 12.869c-.189 0-.381-.054-.551-.166-.461-.305-.587-.925-.283-1.386 1.03-1.558.78-3.76-.582-5.122-.39-.391-.39-1.023 0-1.414s1.024-.391 1.414 0c2.054 2.054 2.405 5.267.836 7.64-.192.291-.51.448-.834.448z" fill="#3dc99e"/><path d="m27.233 16.731h8.021v20.052h-8.021z" fill="#eb7937" transform="matrix(.707 .707 -.707 .707 28.072 -14.255)"/><path d="m26.99 32.012c-.256 0-.512-.098-.707-.293-.391-.391-.391-1.023 0-1.414l4.011-4.012c.39-.391 1.023-.391 1.414 0s.391 1.023 0 1.414l-4.011 4.012c-.195.195-.452.293-.707.293z" fill="#f2b394"/><path d="m34.001 25c-.256 0-.512-.098-.707-.293-.391-.391-.391-1.023 0-1.414l1-1c.39-.391 1.024-.391 1.414 0 .391.391.391 1.023 0 1.414l-1 1c-.195.195-.451.293-.707.293z" fill="#f2b394"/><path d="m38.576 13.409h8.021v4.01h-8.021z" fill="#3d6f44" transform="matrix(.707 .707 -.707 .707 23.373 -25.599)"/><path d="m9.001 50c-.256 0-.512-.098-.707-.293-.391-.391-.391-1.023 0-1.414l4-4c.39-.391 1.024-.391 1.414 0 .391.391.391 1.023 0 1.414l-4 4c-.195.195-.451.293-.707.293z" fill="#fff"/><path d="m.89 57.123-.011-.011c-1.172-1.172-1.172-3.071 0-4.243l5.551-5.552 4.254 4.254-5.551 5.551c-1.172 1.173-3.072 1.173-4.243.001z" fill="#afb6bb"/></svg>