<svg height="512" viewBox="0 0 64 64" width="512" xmlns="http://www.w3.org/2000/svg"><g id="flat"><g fill="#db527d"><path d="m29 23-9 9 3 3 9-9v-3z"/><path d="m35 23 9 9-3 3-9-9v-3z"/><path d="m20.257 28.379h8.485v4.243h-8.485z" transform="matrix(.707 -.707 .707 .707 -14.391 26.257)"/><path d="m37.379 26.257h4.243v8.485h-4.243z" transform="matrix(.707 -.707 .707 .707 -9.997 36.864)"/></g><path d="m26 37c0 5-8.04 24-15.1 24s-10.14-23-6.1-33c0 0 7.07-19 14.13-19 4.04 0 8.08 12 5.05 18a11.22 11.22 0 0 0 -.59 1.36 3.923 3.923 0 0 0 -.12 3.09c.72 1.63 2.73 2.4 2.73 5.55z" fill="#f98c96"/><path d="m29 3h6v4h-6z" fill="#db527d"/><path d="m29 7h6v4h-6z" fill="#c13a6b"/><path d="m29 11h6v4h-6z" fill="#db527d"/><path d="m29 15h6v4h-6z" fill="#c13a6b"/><path d="m29 19h6v4h-6z" fill="#db527d"/><path d="m26 26 3-3h3v3l-3 3z" fill="#c13a6b"/><path d="m20.64 33.86c1.05.9 2.36 2.7 2.36 6.14h-2c0-2.63-.92-3.95-1.6-4.57a22.5 22.5 0 0 0 -1.4 8.57c0 2.77-1.25 8-6 8v-2c3.94 0 4-5.76 4-6a25.854 25.854 0 0 1 1.23-8.47 10.819 10.819 0 0 1 -2.29.42 18.222 18.222 0 0 1 -5.23 10.76l-1.42-1.42a16.349 16.349 0 0 0 4.61-9.22 5.51 5.51 0 0 0 -4.92 4.13l-1.96-.4c.4-2 2.59-5.8 7.98-5.8a9.254 9.254 0 0 0 4.64-1.24 8.8 8.8 0 0 1 -.56-1.15 6.915 6.915 0 0 1 -2.5.47 7.36 7.36 0 0 1 -5.29-2.37l1.42-1.42a5.06 5.06 0 0 0 5.82 1.38 6.065 6.065 0 0 1 1.76-5.38l1.42 1.42c-2.09 2.09-1.13 4.62-.43 5.88.79-.69 2.22-2.24 3.11-3.23a3.923 3.923 0 0 0 -.12 3.09 20.892 20.892 0 0 1 -2.63 2.41z" fill="#a8295d"/><path d="m13.919 20.394-1.838-.788c3.3-7.693 7.968-6.624 8.161-6.576l-.467 1.945c-.131-.029-3.275-.612-5.856 5.419z" fill="#f4f4e6"/><path d="m11 22h2v2h-2z" fill="#f4f4e6"/><path d="m53.1 61c-7.06 0-15.1-19-15.1-24 0-3.15 2.01-3.92 2.73-5.55a3.923 3.923 0 0 0 -.12-3.09 11.22 11.22 0 0 0 -.59-1.36c-3.03-6 1.01-18 5.05-18 7.06 0 14.13 19 14.13 19 4.04 10 .97 33-6.1 33z" fill="#f98c96"/><path d="m38 26-3-3h-3v3l3 3z" fill="#a8295d"/><path d="m51.1 36.08a16.329 16.329 0 0 0 4.61 9.21l-1.42 1.42a18.222 18.222 0 0 1 -5.23-10.76 10.819 10.819 0 0 1 -2.29-.42 25.854 25.854 0 0 1 1.23 8.47c0 .24.06 6 4 6v2c-4.75 0-6-5.23-6-8a22.152 22.152 0 0 0 -1.41-8.57c-.68.61-1.59 1.92-1.59 4.57h-2c0-3.44 1.31-5.24 2.36-6.14a20.892 20.892 0 0 1 -2.63-2.41 3.923 3.923 0 0 0 -.12-3.09c.89.99 2.32 2.54 3.11 3.23.69-1.27 1.65-3.81-.43-5.88l1.42-1.42a6.065 6.065 0 0 1 1.76 5.38 5.063 5.063 0 0 0 5.82-1.38l1.42 1.42a7.36 7.36 0 0 1 -5.29 2.37 6.915 6.915 0 0 1 -2.5-.47 8.8 8.8 0 0 1 -.56 1.15 9.254 9.254 0 0 0 4.64 1.24c5.39 0 7.58 3.8 7.98 5.8l-1.96.4a5.566 5.566 0 0 0 -4.92-4.12z" fill="#a8295d"/><path d="m50.081 20.394c-2.585-6.03-5.724-5.448-5.856-5.419l-.467-1.945c.2-.048 4.864-1.118 8.161 6.576z" fill="#f4f4e6"/><path d="m51 22h2v2h-2z" fill="#f4f4e6"/></g></svg>