<svg height="512pt" viewBox="-74 0 512 512.00072" width="512pt" xmlns="http://www.w3.org/2000/svg"><path d="m91.125 322.441406c14.824219-14.824218 14.824219-38.949218 0-53.773437-7.183594-7.179688-16.730469-11.136719-26.886719-11.136719-5.871093 0-11.535156 1.328125-16.65625 3.832031-18.058593-25.835937-27.570312-56.070312-27.570312-87.871093 0-81.386719 63.578125-148.808594 144.738281-153.496094 5.519531-.320313 9.730469-5.050782 9.414062-10.566406-.320312-5.519532-5.050781-9.71875-10.566406-9.414063-91.738281 5.300781-163.597656 81.5-163.597656 173.476563 0 36.695312 11.214844 71.550781 32.476562 101.15625-9.714843 14.75-8.089843 34.828124 4.875 47.792968 7.183594 7.179688 16.730469 11.136719 26.886719 11.136719s19.703125-3.957031 26.886719-11.136719zm-39.625-39.621094c3.511719-3.511718 8.125-5.269531 12.738281-5.269531 4.609375 0 9.222657 1.757813 12.734375 5.269531 7.023438 7.019532 7.023438 18.449219 0 25.46875-7.023437 7.023438-18.449218 7.023438-25.472656 0-7.019531-7.019531-7.019531-18.445312 0-25.46875zm0 0"/><path d="m328.042969 346.667969c-6.324219 0-12.269531 1.648437-17.429688 4.539062-4.574219-14.503906-18.152343-25.050781-34.148437-25.050781-10.121094 0-19.273438 4.222656-25.789063 10.996094-1.808593-1.875-3.820312-3.550782-5.996093-5 23.0625-10.324219 43.816406-25.660156 60.609374-45.085938 27.242188-31.523437 42.246094-71.859375 42.246094-113.574218 0-36.675782-11.214844-71.550782-32.472656-101.160157 9.714844-14.75 8.089844-34.824219-4.878906-47.792969-14.824219-14.824218-38.945313-14.824218-53.773438 0-14.824218 14.824219-14.824218 38.949219 0 53.773438 7.414063 7.414062 17.148438 11.121094 26.886719 11.121094 5.707031 0 11.40625-1.285156 16.644531-3.832032 18.066406 25.84375 27.582032 56.101563 27.582032 87.890626 0 72.382812-49.136719 133.566406-118.421876 149.683593v-53.859375c39.679688-14.648437 66.789063-53.003906 66.789063-95.824218 0-56.308594-45.8125-102.121094-102.125-102.121094-56.308594 0-102.121094 45.808594-102.121094 102.121094 0 22.222656 7.019531 43.355468 20.292969 61.105468 11.578125 15.480469 27.597656 27.503906 45.570312 34.363282v147.183593l-12.570312-20.621093c-10.5625-17.339844-32.613281-22.964844-50.195312-12.816407-16.722657 9.65625-23.246094 30.84375-14.804688 48.320313l37.324219 75.402344c1.746093 3.527343 5.292969 5.570312 8.976562 5.570312 1.492188 0 3.003907-.332031 4.429688-1.039062 4.953125-2.453126 6.980469-8.457032 4.53125-13.40625l-37.285157-75.316407c-3.863281-8.003906-.863281-17.753906 6.835938-22.199219 7.957031-4.59375 18.320312-1.949218 23.101562 5.898438l31.117188 51.058594c2.335938 3.828125 6.933594 5.636718 11.25 4.425781s7.300781-5.148437 7.300781-9.636719v-229.578125c0-8.703125 7.082031-15.78125 15.785157-15.78125 8.703124 0 15.785156 7.078125 15.785156 15.78125v39.578125c-.003906.070313 0 .140625 0 .214844v150.242188c0 5.527343 4.476562 10.003906 10.003906 10.003906s10.007812-4.476563 10.007812-10.003906v-50.289063c0-8.703125 7.078126-15.785156 15.78125-15.785156 8.703126 0 15.785157 7.082031 15.785157 15.785156v53.929687c0 5.527344 4.480469 10.007813 10.003906 10.007813 5.527344 0 10.007813-4.480469 10.007813-10.007813v-53.929687c0-8.703125 7.082031-15.785156 15.785156-15.785156s15.78125 7.082031 15.78125 15.785156v54.605469c0 5.527344 4.480468 10.007812 10.007812 10.007812s10.003906-4.480468 10.003906-10.007812v-34.09375c0-8.703125 7.082032-15.785156 15.785157-15.785156s15.785156 7.082031 15.785156 15.785156v119.523437c0 5.527344 4.476563 10.007813 10.003906 10.007813 5.527344 0 10.007813-4.480469 10.007813-10.007813v-119.523437c0-19.738282-16.058594-35.796875-35.796875-35.796875zm-57.480469-282.503907c-7.023438-7.023437-7.023438-18.449218 0-25.472656 3.511719-3.511718 8.121094-5.265625 12.734375-5.265625s9.226563 1.753907 12.738281 5.265625c7.019532 7.023438 7.019532 18.449219 0 25.472656-7.023437 7.019532-18.453125 7.019532-25.472656 0zm-178.90625 109.328126c0-45.277344 36.835938-82.113282 82.113281-82.113282 45.273438 0 82.109375 36.835938 82.109375 82.113282 0 31.882812-18.683594 60.691406-46.777344 74.132812v-25.417969c0-5.617187-1.304687-10.9375-3.625-15.675781 8.875-8.554688 14.121094-20.480469 14.121094-33.039062 0-25.273438-20.558594-45.832032-45.828125-45.832032-25.273437 0-45.832031 20.558594-45.832031 45.832032 0 12.191406 4.964844 23.90625 13.5 32.445312-2.503906 4.882812-3.929688 10.414062-3.929688 16.269531v24.996094c-27.863281-13.617187-45.851562-41.855469-45.851562-73.710937zm63.492188 17.882812c-4.613282-4.773438-7.199219-11.097656-7.199219-17.882812 0-14.238282 11.582031-25.820313 25.816406-25.820313 14.238281 0 25.820313 11.582031 25.820313 25.820313 0 6.882812-2.796876 13.4375-7.554688 18.226562-5.453125-3.363281-11.867188-5.304688-18.726562-5.304688-6.625 0-12.828126 1.8125-18.15625 4.960938zm0 0"/><path d="m209.199219 23.578125c2.632812 0 5.214843-1.070313 7.074219-2.933594 1.863281-1.859375 2.933593-4.441406 2.933593-7.074219 0-2.628906-1.070312-5.210937-2.933593-7.074218-1.859376-1.859375-4.441407-2.929688-7.074219-2.929688-2.628907 0-5.210938 1.070313-7.070313 2.929688-1.863281 1.863281-2.933594 4.445312-2.933594 7.074218 0 2.632813 1.070313 5.214844 2.933594 7.074219 1.859375 1.863281 4.441406 2.933594 7.070313 2.933594zm0 0"/></svg>